<svg width="228" height="86" viewBox="0 0 228 86" fill="none" xmlns="http://www.w3.org/2000/svg">
<path fill-rule="evenodd" clip-rule="evenodd" d="M3.93311 38.3928C3.93311 54.9566 15.6226 68.0101 32.4468 68.0101C46.649 68.0101 54.5148 58.5765 54.5148 58.5765L50.2541 52.7627C50.2541 52.7627 43.6993 60.4413 32.556 60.4413C21.085 60.4413 12.2359 50.5688 12.2359 38.2831C12.2359 25.5586 20.9757 17.0025 32.2283 17.0025C37.9091 17.0025 45.775 19.4157 45.775 24.1326V27.4234H53.0946V21.9387C53.0946 12.9438 39.5479 9.76269 32.0098 9.76269C16.0596 9.65299 3.93311 22.0484 3.93311 38.3928Z" fill="url(#paint0_linear)"/>
<path fill-rule="evenodd" clip-rule="evenodd" d="M63.4731 61.8674C63.4731 65.4873 65.0026 67.023 68.6078 67.023H76.2551V60.4414H72.9777C71.8852 60.4414 71.2297 59.8929 71.2297 58.6863V15.796C71.2297 12.1761 69.7003 10.6404 66.0951 10.6404H58.4478V17.222H61.7252C62.8177 17.222 63.4731 17.7705 63.4731 18.9771V61.8674Z" fill="url(#paint1_linear)"/>
<path fill-rule="evenodd" clip-rule="evenodd" d="M116.786 60.3317C115.693 60.3317 115.038 59.7833 115.038 58.5766V41.4644C115.038 32.5792 111.542 25.6685 98.5413 25.6685C94.6084 25.6685 84.6668 26.6557 84.6668 33.2373V37.1863H91.7679V34.8827C91.7679 32.2501 96.4656 31.8113 98.3228 31.8113C104.55 31.8113 107.172 34.3343 107.172 41.4644V41.9032H105.424C98.6505 41.9032 81.1709 42.671 81.1709 55.7246C81.1709 63.7322 87.9443 68.0103 94.8269 68.0103C104.441 68.0103 107.609 60.0026 107.609 60.0026H107.718C107.718 60.0026 107.609 60.9899 107.609 62.4159C107.609 65.2679 109.029 67.023 112.634 67.023H119.845V60.4414H116.786V60.3317ZM107.39 48.9236C107.39 54.9567 103.13 61.7577 96.6841 61.7577C91.5494 61.7577 89.146 58.5766 89.146 55.2858C89.146 47.8266 99.6338 47.4975 105.424 47.4975H107.39V48.9236Z" fill="url(#paint2_linear)"/>
<path fill-rule="evenodd" clip-rule="evenodd" d="M149.014 25.6685C138.963 25.6685 135.685 32.7986 135.685 32.7986H135.467C135.467 32.7986 135.576 31.8113 135.576 30.6047C135.576 28.0817 134.265 26.546 130.66 26.546H123.45V33.1276H126.727C127.82 33.1276 128.475 33.6761 128.475 34.8827V82.819H136.232V65.0486C136.232 62.9644 136.122 61.5384 136.122 61.5384H136.232C136.232 61.5384 139.618 68.0103 148.577 68.0103C159.064 68.0103 166.821 59.6736 166.821 46.8394C166.712 34.2246 159.829 25.6685 149.014 25.6685ZM147.266 61.319C139.837 61.319 135.904 54.1889 135.904 46.9491C135.904 36.6378 141.585 32.4695 147.484 32.4695C154.148 32.4695 158.846 38.1736 158.846 46.9491C158.846 56.0537 153.602 61.319 147.266 61.319Z" fill="url(#paint3_linear)"/>
<path fill-rule="evenodd" clip-rule="evenodd" d="M171.737 60.8802C171.737 60.8802 177.09 68.0103 187.797 68.0103C196.209 68.0103 202.545 63.4032 202.545 56.1634C202.545 42.671 180.586 44.3164 180.586 36.6378C180.586 33.4567 183.536 31.8113 188.015 31.8113C190.528 31.8113 194.024 32.7986 194.024 35.2118V37.296H200.906V33.4567C200.906 27.3139 192.604 25.6685 187.687 25.6685C179.494 25.6685 172.721 29.2884 172.721 36.9669C172.721 50.0205 194.679 49.1429 194.679 56.4924C194.679 60.0026 191.402 61.6481 187.687 61.6481C180.259 61.6481 175.561 55.6149 175.561 55.6149L171.737 60.8802Z" fill="url(#paint4_linear)"/>
<path fill-rule="evenodd" clip-rule="evenodd" d="M193.696 2.96176C195.444 3.18115 196.646 4.82656 196.427 6.58166L195.553 12.7245C195.335 14.4796 193.696 15.6863 191.948 15.4669C190.2 15.2475 188.999 13.6021 189.217 11.847L190.091 5.70411C190.31 3.94901 191.948 2.74238 193.696 2.96176Z" fill="#03B485"/>
<path fill-rule="evenodd" clip-rule="evenodd" d="M214.563 9.8725C215.764 11.0791 215.874 13.1633 214.563 14.37L210.193 18.8674C208.991 20.074 206.915 20.1837 205.714 18.8674C204.512 17.6608 204.403 15.5766 205.714 14.37L210.084 9.8725C211.285 8.66587 213.361 8.66587 214.563 9.8725Z" fill="#03B485"/>
<path fill-rule="evenodd" clip-rule="evenodd" d="M223.958 28.6302C224.504 30.2756 223.521 32.1404 221.773 32.5791L215.764 34.3342C214.125 34.8827 212.268 33.8955 211.831 32.1404C211.285 30.4949 212.268 28.6302 214.016 28.1914L220.025 26.4363C221.663 25.8878 223.411 26.875 223.958 28.6302Z" fill="#03B485"/>
<defs>
<linearGradient id="paint0_linear" x1="26.7792" y1="10.0428" x2="31.969" y2="69.1215" gradientUnits="userSpaceOnUse">
<stop stop-color="#03B485"/>
<stop offset="0.1959" stop-color="#029E8B"/>
<stop offset="0.437" stop-color="#028B91"/>
<stop offset="0.6813" stop-color="#017F95"/>
<stop offset="0.9312" stop-color="#017B96"/>
</linearGradient>
<linearGradient id="paint1_linear" x1="65.5589" y1="10.026" x2="70.6164" y2="67.5982" gradientUnits="userSpaceOnUse">
<stop stop-color="#03B485"/>
<stop offset="0.1959" stop-color="#029E8B"/>
<stop offset="0.437" stop-color="#028B91"/>
<stop offset="0.6813" stop-color="#017F95"/>
<stop offset="0.9312" stop-color="#017B96"/>
</linearGradient>
<linearGradient id="paint2_linear" x1="97.8041" y1="25.6071" x2="101.583" y2="68.6226" gradientUnits="userSpaceOnUse">
<stop stop-color="#03B485"/>
<stop offset="0.1959" stop-color="#029E8B"/>
<stop offset="0.437" stop-color="#028B91"/>
<stop offset="0.6813" stop-color="#017F95"/>
<stop offset="0.9312" stop-color="#017B96"/>
</linearGradient>
<linearGradient id="paint3_linear" x1="143.768" y1="24.8227" x2="148.778" y2="81.8529" gradientUnits="userSpaceOnUse">
<stop stop-color="#03B485"/>
<stop offset="0.1959" stop-color="#029E8B"/>
<stop offset="0.437" stop-color="#028B91"/>
<stop offset="0.6813" stop-color="#017F95"/>
<stop offset="0.9312" stop-color="#017B96"/>
</linearGradient>
<linearGradient id="paint4_linear" x1="185.358" y1="25.7754" x2="189.1" y2="68.3771" gradientUnits="userSpaceOnUse">
<stop stop-color="#03B485"/>
<stop offset="0.1959" stop-color="#029E8B"/>
<stop offset="0.437" stop-color="#028B91"/>
<stop offset="0.6813" stop-color="#017F95"/>
<stop offset="0.9312" stop-color="#017B96"/>
</linearGradient>
</defs>
</svg>
